<svg xmlns="http://www.w3.org/2000/svg" width="19" height="16" viewBox="0 0 19 16">
    <g fill="none" fill-rule="evenodd">
        <path d="M-2-4h24v24H-2z"/>
        <path fill="#1E1F21" fill-rule="nonzero" d="M2 6.5C1.17 6.5.5 7.17.5 8S1.17 9.5 2 9.5 3.5 8.83 3.5 8 2.83 6.5 2 6.5zm0-6C1.17.5.5 1.17.5 2S1.17 3.5 2 3.5 3.5 2.83 3.5 2 2.83.5 2 .5zm0 12c-.83 0-1.5.68-1.5 1.5s.68 1.5 1.5 1.5 1.5-.68 1.5-1.5-.67-1.5-1.5-1.5zM6 15h12c.55 0 1-.45 1-1s-.45-1-1-1H6c-.55 0-1 .45-1 1s.45 1 1 1zm0-6h12c.55 0 1-.45 1-1s-.45-1-1-1H6c-.55 0-1 .45-1 1s.45 1 1 1zM5 2c0 .55.45 1 1 1h12c.55 0 1-.45 1-1s-.45-1-1-1H6c-.55 0-1 .45-1 1z"/>
    </g>
</svg>
