<?xml version="1.0" encoding="UTF-8"?>
<svg width="16px" height="16px" viewBox="0 0 16 16" version="1.1" xmlns="http://www.w3.org/2000/svg" xmlns:xlink="http://www.w3.org/1999/xlink">
    <g id="icon/calendar/grey(hover)" stroke="none" stroke-width="1" fill="none" fill-rule="evenodd">
        <g id="icon/calendar/grey">
            <polygon id="Path" points="0 0 16 0 16 16 0 16"></polygon>
            <path d="M13.3333333,2 L12.6666667,2 L12.6666667,1.33333333 C12.6666667,0.966666667 12.3666667,0.666666667 12,0.666666667 C11.6333333,0.666666667 11.3333333,0.966666667 11.3333333,1.33333333 L11.3333333,2 L4.66666667,2 L4.66666667,1.33333333 C4.66666667,0.966666667 4.36666667,0.666666667 4,0.666666667 C3.63333333,0.666666667 3.33333333,0.966666667 3.33333333,1.33333333 L3.33333333,2 L2.66666667,2 C1.93333333,2 1.33333333,2.6 1.33333333,3.33333333 L1.33333333,14 C1.33333333,14.7333333 1.93333333,15.3333333 2.66666667,15.3333333 L13.3333333,15.3333333 C14.0666667,15.3333333 14.6666667,14.7333333 14.6666667,14 L14.6666667,3.33333333 C14.6666667,2.6 14.0666667,2 13.3333333,2 Z M12.6666667,14 L3.33333333,14 C2.96666667,14 2.66666667,13.7 2.66666667,13.3333333 L2.66666667,5.33333333 L13.3333333,5.33333333 L13.3333333,13.3333333 C13.3333333,13.7 13.0333333,14 12.6666667,14 Z" id="Shape" fill="#9BA1A6" fill-rule="nonzero"></path>
        </g>
    </g>
</svg>