<?xml version="1.0" encoding="UTF-8"?>
<svg width="16px" height="16px" viewBox="0 0 16 16" version="1.1" xmlns="http://www.w3.org/2000/svg" xmlns:xlink="http://www.w3.org/1999/xlink">
    <g id="icon/cancel" stroke="none" stroke-width="1" fill="none" fill-rule="evenodd">
        <g>
            <path d="M8,1.33333333 C4.31333333,1.33333333 1.33333333,4.31333333 1.33333333,8 C1.33333333,11.6866667 4.31333333,14.6666667 8,14.6666667 C11.6866667,14.6666667 14.6666667,11.6866667 14.6666667,8 C14.6666667,4.31333333 11.6866667,1.33333333 8,1.33333333 Z M11.3333333,10.3933333 L10.3933333,11.3333333 L8,8.94 L5.60666667,11.3333333 L4.66666667,10.3933333 L7.06,8 L4.66666667,5.60666667 L5.60666667,4.66666667 L8,7.06 L10.3933333,4.66666667 L11.3333333,5.60666667 L8.94,8 L11.3333333,10.3933333 Z" id="Shape" fill="#5E6061" fill-rule="nonzero"></path>
            <polygon id="Path" points="0 0 16 0 16 16 0 16"></polygon>
        </g>
    </g>
</svg>