<?xml version="1.0" encoding="UTF-8"?>
<svg width="10px" height="12px" viewBox="0 0 10 12" version="1.1" xmlns="http://www.w3.org/2000/svg" xmlns:xlink="http://www.w3.org/1999/xlink">
    <!-- Generator: Sketch 53.2 (72643) - https://sketchapp.com -->
    <title>round-delete_forever-24px</title>
    <desc>Created with Sketch.</desc>
    <g id="4.Layout-Templates" stroke="none" stroke-width="1" fill="none" fill-rule="evenodd">
        <g id="Accounts--Single" transform="translate(-321.000000, -235.000000)">
            <g id="Group-9" transform="translate(318.000000, 230.000000)">
                <g id="Group-20">
                    <g id="round-delete_forever-24px" transform="translate(0.000000, 3.000000)">
                        <polygon id="Path" points="0 0 16 0 16 16 0 16"></polygon>
                        <path d="M4,12.6666667 C4,13.4 4.6,14 5.33333333,14 L10.6666667,14 C11.4,14 12,13.4 12,12.6666667 L12,6 C12,5.26666667 11.4,4.66666667 10.6666667,4.66666667 L5.33333333,4.66666667 C4.6,4.66666667 4,5.26666667 4,6 L4,12.6666667 Z M6.11333333,7.44666667 C6.37333333,7.18666667 6.79333333,7.18666667 7.05333333,7.44666667 L8,8.39333333 L8.94666667,7.44666667 C9.20666667,7.18666667 9.62666667,7.18666667 9.88666667,7.44666667 C10.1466667,7.70666667 10.1466667,8.12666667 9.88666667,8.38666667 L8.94,9.33333333 L9.88666667,10.28 C10.1466667,10.54 10.1466667,10.96 9.88666667,11.22 C9.62666667,11.48 9.20666667,11.48 8.94666667,11.22 L8,10.2733333 L7.05333333,11.22 C6.79333333,11.48 6.37333333,11.48 6.11333333,11.22 C5.85333333,10.96 5.85333333,10.54 6.11333333,10.28 L7.06,9.33333333 L6.11333333,8.38666667 C5.85333333,8.13333333 5.85333333,7.70666667 6.11333333,7.44666667 Z M10.3333333,2.66666667 L9.86,2.19333333 C9.74,2.07333333 9.56666667,2 9.39333333,2 L6.60666667,2 C6.43333333,2 6.26,2.07333333 6.14,2.19333333 L5.66666667,2.66666667 L4,2.66666667 C3.63333333,2.66666667 3.33333333,2.96666667 3.33333333,3.33333333 C3.33333333,3.7 3.63333333,4 4,4 L12,4 C12.3666667,4 12.6666667,3.7 12.6666667,3.33333333 C12.6666667,2.96666667 12.3666667,2.66666667 12,2.66666667 L10.3333333,2.66666667 Z" id="Shape" fill="#5E6061" fill-rule="nonzero"></path>
                    </g>
                </g>
            </g>
        </g>
    </g>
</svg>
