<?xml version="1.0" encoding="UTF-8"?>
<svg width="12px" height="12px" viewBox="0 0 12 12" version="1.1" xmlns="http://www.w3.org/2000/svg" xmlns:xlink="http://www.w3.org/1999/xlink">
    <!-- Generator: Sketch 53.2 (72643) - https://sketchapp.com -->
    <title>round-edit-24px</title>
    <desc>Created with Sketch.</desc>
    <g id="4.Layout-Templates" stroke="none" stroke-width="1" fill="none" fill-rule="evenodd">
        <g id="Accounts--Single" transform="translate(-198.000000, -235.000000)">
            <g id="Group-19" transform="translate(196.000000, 230.000000)">
                <g id="round-edit-24px" transform="translate(0.000000, 3.000000)">
                    <polygon id="Path" points="0 0 16 0 16 16 0 16"></polygon>
                    <path d="M2,11.64 L2,13.6666667 C2,13.8533333 2.14666667,14 2.33333333,14 L4.36,14 C4.44666667,14 4.53333333,13.9666667 4.59333333,13.9 L11.8733333,6.62666667 L9.37333333,4.12666667 L2.1,11.4 C2.03333333,11.4666667 2,11.5466667 2,11.64 Z M13.8066667,4.69333333 C14.0666667,4.43333333 14.0666667,4.01333333 13.8066667,3.75333333 L12.2466667,2.19333333 C11.9866667,1.93333333 11.5666667,1.93333333 11.3066667,2.19333333 L10.0866667,3.41333333 L12.5866667,5.91333333 L13.8066667,4.69333333 Z" id="Shape" fill="#5E6061" fill-rule="nonzero"></path>
                </g>
            </g>
        </g>
    </g>
</svg>
