<?xml version="1.0" encoding="UTF-8"?>
<svg width="12px" height="14px" viewBox="0 0 12 14" version="1.1" xmlns="http://www.w3.org/2000/svg" xmlns:xlink="http://www.w3.org/1999/xlink">
    <g id="4.Layout-Templates" stroke="none" stroke-width="1" fill="none" fill-rule="evenodd">
        <g id="Accounts--Main" transform="translate(-1368.000000, -324.000000)">
            <g id="Group-16" transform="translate(32.000000, 216.000000)">
                <g id="Group-2" transform="translate(16.000000, 97.000000)">
                    <g id="Group-6" transform="translate(1308.000000, 0.000000)">
                        <g id="round-publish-24px" transform="translate(18.000000, 18.000000) scale(1, -1) translate(-18.000000, -18.000000) translate(8.000000, 8.000000)">
                            <polygon id="Path" points="0 0 20 0 20 20 0 20"></polygon>
                            <path d="M4.16666667,4.16666667 C4.16666667,4.625 4.54166667,5 5,5 L15,5 C15.4583333,5 15.8333333,4.625 15.8333333,4.16666667 C15.8333333,3.70833333 15.4583333,3.33333333 15,3.33333333 L5,3.33333333 C4.54166667,3.33333333 4.16666667,3.70833333 4.16666667,4.16666667 Z M6.175,11.6666667 L7.5,11.6666667 L7.5,15.8333333 C7.5,16.2916667 7.875,16.6666667 8.33333333,16.6666667 L11.6666667,16.6666667 C12.125,16.6666667 12.5,16.2916667 12.5,15.8333333 L12.5,11.6666667 L13.825,11.6666667 C14.5666667,11.6666667 14.9416667,10.7666667 14.4166667,10.2416667 L10.5916667,6.41666667 C10.2666667,6.09166667 9.74166667,6.09166667 9.41666667,6.41666667 L5.59166667,10.2416667 C5.06666667,10.7666667 5.43333333,11.6666667 6.175,11.6666667 Z" id="Shape" fill="#000000" fill-rule="nonzero"></path>
                        </g>
                    </g>
                </g>
            </g>
        </g>
    </g>
</svg>
