<?xml version="1.0" encoding="UTF-8"?>
<svg width="19px" height="16px" viewBox="0 0 19 16" version="1.1" xmlns="http://www.w3.org/2000/svg" xmlns:xlink="http://www.w3.org/1999/xlink">
    <!-- Generator: Sketch 53.2 (72643) - https://sketchapp.com -->
    <title>round-format_list_bulleted-24px</title>
    <desc>Created with Sketch.</desc>
    <g id="4.Layout-Templates" stroke="none" stroke-width="1" fill="none" fill-rule="evenodd">
        <g id="Accounts--Main" transform="translate(-1370.000000, -240.000000)">
            <g id="Group-16" transform="translate(32.000000, 216.000000)">
                <g id="Group-18" transform="translate(1296.000000, 20.000000)">
                    <g id="round-format_list_bulleted-24px" transform="translate(40.000000, 0.000000)">
                        <polygon id="Path" points="0 0 24 0 24 24 0 24"></polygon>
                        <path d="M4,10.5 C3.17,10.5 2.5,11.17 2.5,12 C2.5,12.83 3.17,13.5 4,13.5 C4.83,13.5 5.5,12.83 5.5,12 C5.5,11.17 4.83,10.5 4,10.5 Z M4,4.5 C3.17,4.5 2.5,5.17 2.5,6 C2.5,6.83 3.17,7.5 4,7.5 C4.83,7.5 5.5,6.83 5.5,6 C5.5,5.17 4.83,4.5 4,4.5 Z M4,16.5 C3.17,16.5 2.5,17.18 2.5,18 C2.5,18.82 3.18,19.5 4,19.5 C4.82,19.5 5.5,18.82 5.5,18 C5.5,17.18 4.83,16.5 4,16.5 Z M8,19 L20,19 C20.55,19 21,18.55 21,18 C21,17.45 20.55,17 20,17 L8,17 C7.45,17 7,17.45 7,18 C7,18.55 7.45,19 8,19 Z M8,13 L20,13 C20.55,13 21,12.55 21,12 C21,11.45 20.55,11 20,11 L8,11 C7.45,11 7,11.45 7,12 C7,12.55 7.45,13 8,13 Z M7,6 C7,6.55 7.45,7 8,7 L20,7 C20.55,7 21,6.55 21,6 C21,5.45 20.55,5 20,5 L8,5 C7.45,5 7,5.45 7,6 Z" id="Shape" fill="#1E1F21" fill-rule="nonzero"></path>
                    </g>
                </g>
            </g>
        </g>
    </g>
</svg>
