<svg width="28" height="32" viewBox="0 0 28 32" fill="#406DEA" xmlns="http://www.w3.org/2000/svg">
<path d="M14.0002 5.33331V0.333313L7.3335 6.99998L14.0002 13.6666V8.66665C19.5168 8.66665 24.0002 13.15 24.0002 18.6666C24.0002 23.6166 20.3835 27.7166 15.6668 28.5166V31.8833C22.2502 31.0666 27.3335 25.4666 27.3335 18.6666C27.3335 11.3 21.3668 5.33331 14.0002 5.33331Z" />
<path d="M4.00008 18.6667C4.00008 15.9167 5.11675 13.4167 6.93342 11.6L4.56675 9.23334C2.16675 11.65 0.666748 14.9833 0.666748 18.6667C0.666748 25.4667 5.75008 31.0667 12.3334 31.8833V28.5167C7.61675 27.7167 4.00008 23.6167 4.00008 18.6667Z"/>
</svg>