<svg xmlns="http://www.w3.org/2000/svg" width="14" height="14" viewBox="0 0 18 18">
    <path fill="#000" fill-rule="nonzero" d="M14.927 10.839a6.194 6.194 0 0 1-6.723 4.318A6.188 6.188 0 0 1 2.83 9.613l1.271.972a.392.392 0 0 0 .477-.623L2.751 8.564a.392.392 0 0 0-.55.073L.803 10.464a.393.393 0 0 0 .624.477l.667-.873a6.972 6.972 0 0 0 6.01 5.868 6.975 6.975 0 0 0 7.573-4.865.392.392 0 1 0-.75-.232zm1.676-4.008l-.723.943a6.972 6.972 0 0 0-5.984-5.72A6.978 6.978 0 0 0 2.323 6.92a.392.392 0 1 0 .75.232 6.196 6.196 0 0 1 6.722-4.318 6.192 6.192 0 0 1 5.35 5.283l-1.215-.93a.392.392 0 1 0-.477.623l1.825 1.398a.393.393 0 0 0 .55-.073l1.398-1.826a.394.394 0 0 0-.073-.55.391.391 0 0 0-.55.073z"/>
</svg>
